<?xml version="1.0" encoding="UTF-8"?>
<svg id="Layer_1" data-name="Layer 1" xmlns="http://www.w3.org/2000/svg" xmlns:xlink="http://www.w3.org/1999/xlink" viewBox="0 0 333.25 66.32">
  <defs>
    <style>
      .cls-1 {
        fill: url(#radial-gradient-10);
      }

      .cls-2 {
        fill: url(#linear-gradient-15);
      }

      .cls-3 {
        fill: url(#linear-gradient-13);
      }

      .cls-4 {
        fill: url(#linear-gradient-28);
      }

      .cls-5 {
        fill: url(#linear-gradient-42);
      }

      .cls-6 {
        fill: url(#linear-gradient-2);
      }

      .cls-7 {
        fill: url(#radial-gradient-9);
      }

      .cls-8 {
        fill: url(#linear-gradient-25);
      }

      .cls-9 {
        fill: url(#linear-gradient-10);
      }

      .cls-10 {
        fill: url(#linear-gradient-12);
      }

      .cls-11 {
        fill: url(#linear-gradient-40);
      }

      .cls-12 {
        fill: url(#linear-gradient-27);
      }

      .cls-13 {
        fill: url(#linear-gradient-37);
      }

      .cls-14 {
        fill: url(#radial-gradient-14);
      }

      .cls-15 {
        fill: url(#linear-gradient-39);
      }

      .cls-16 {
        fill: url(#radial-gradient-16);
      }

      .cls-17 {
        fill: url(#radial-gradient-18);
      }

      .cls-18 {
        fill: url(#linear-gradient-26);
      }

      .cls-19 {
        fill: #268c63;
      }

      .cls-20 {
        fill: url(#linear-gradient-4);
      }

      .cls-21 {
        fill: url(#radial-gradient-5);
      }

      .cls-22 {
        fill: url(#linear-gradient-35);
      }

      .cls-23 {
        fill: url(#linear-gradient-30);
      }

      .cls-24 {
        fill: url(#radial-gradient);
      }

      .cls-25 {
        fill: url(#radial-gradient-3);
      }

      .cls-26 {
        fill: url(#linear-gradient-3);
      }

      .cls-27 {
        fill: url(#linear-gradient-34);
      }

      .cls-28 {
        fill: url(#linear-gradient-5);
      }

      .cls-29 {
        fill: url(#linear-gradient-38);
      }

      .cls-30 {
        fill: url(#linear-gradient-22);
      }

      .cls-31 {
        fill: url(#linear-gradient-24);
      }

      .cls-32 {
        fill: url(#radial-gradient-11);
      }

      .cls-33 {
        fill: url(#linear-gradient-33);
      }

      .cls-34 {
        fill: url(#linear-gradient-8);
      }

      .cls-35 {
        fill: url(#radial-gradient-8);
      }

      .cls-36 {
        fill: url(#radial-gradient-2);
      }

      .cls-37 {
        fill: url(#linear-gradient-14);
      }

      .cls-38 {
        fill: url(#linear-gradient-29);
      }

      .cls-39 {
        fill: url(#linear-gradient-20);
      }

      .cls-40 {
        fill: url(#radial-gradient-4);
      }

      .cls-41 {
        fill: url(#linear-gradient-17);
      }

      .cls-42 {
        fill: url(#linear-gradient-7);
      }

      .cls-43 {
        fill: url(#linear-gradient-9);
      }

      .cls-44 {
        fill: url(#linear-gradient-11);
      }

      .cls-45 {
        fill: url(#linear-gradient-19);
      }

      .cls-46 {
        fill: url(#radial-gradient-12);
      }

      .cls-47 {
        fill: url(#linear-gradient-6);
      }

      .cls-48 {
        fill: url(#radial-gradient-15);
      }

      .cls-49 {
        fill: url(#linear-gradient-36);
      }

      .cls-50 {
        fill: url(#linear-gradient-21);
      }

      .cls-51 {
        fill: #aed9b1;
      }

      .cls-52 {
        fill: url(#radial-gradient-6);
      }

      .cls-53 {
        fill: url(#linear-gradient-32);
      }

      .cls-54 {
        fill: url(#linear-gradient-41);
      }

      .cls-55 {
        fill: url(#radial-gradient-7);
      }

      .cls-56 {
        fill: url(#linear-gradient-16);
      }

      .cls-57 {
        fill: url(#radial-gradient-17);
      }

      .cls-58 {
        fill: url(#radial-gradient-13);
      }

      .cls-59 {
        fill: url(#linear-gradient);
      }

      .cls-60 {
        fill: url(#linear-gradient-23);
      }

      .cls-61 {
        fill: url(#linear-gradient-31);
      }

      .cls-62 {
        fill: url(#linear-gradient-18);
      }
    </style>
    <radialGradient id="radial-gradient" cx="91.24" cy="7.09" fx="91.24" fy="7.09" r="7.09" gradientUnits="userSpaceOnUse">
      <stop offset="0" stop-color="#fbebcf"/>
      <stop offset=".17" stop-color="#fae9cb"/>
      <stop offset=".33" stop-color="#f9e3bf"/>
      <stop offset=".48" stop-color="#f8daac"/>
      <stop offset=".64" stop-color="#f5cd91"/>
      <stop offset=".79" stop-color="#f3bc6e"/>
      <stop offset=".94" stop-color="#efa844"/>
      <stop offset="1" stop-color="#ee9f32"/>
    </radialGradient>
    <radialGradient id="radial-gradient-2" cx="36.91" cy="45.05" fx="36.91" fy="28.98" r="30.1" gradientUnits="userSpaceOnUse">
      <stop offset="0" stop-color="#65bd8b"/>
      <stop offset=".29" stop-color="#55b081"/>
      <stop offset=".85" stop-color="#2e9167"/>
      <stop offset="1" stop-color="#228860"/>
    </radialGradient>
    <radialGradient id="radial-gradient-3" cy="45.05" fy="28.97" r="30.1" xlink:href="#radial-gradient-2"/>
    <linearGradient id="linear-gradient" x1="61.36" y1="10.95" x2="86.47" y2="36.05" gradientUnits="userSpaceOnUse">
      <stop offset=".47" stop-color="#f5b144"/>
      <stop offset=".47" stop-color="#f4b043"/>
      <stop offset=".63" stop-color="#f0a031"/>
      <stop offset=".8" stop-color="#ed9627"/>
      <stop offset="1" stop-color="#ed9324"/>
    </linearGradient>
    <linearGradient id="linear-gradient-2" x1="63.01" y1="9.3" x2="88.12" y2="34.4" xlink:href="#linear-gradient"/>
    <radialGradient id="radial-gradient-4" cy="45.05" fy="28.97" r="30.1" xlink:href="#radial-gradient-2"/>
    <linearGradient id="linear-gradient-3" x1="43.96" y1="28.35" x2="69.07" y2="53.45" xlink:href="#linear-gradient"/>
    <linearGradient id="linear-gradient-4" x1="49.33" y1="39.91" x2="3.2" y2="39.91" gradientUnits="userSpaceOnUse">
      <stop offset=".04" stop-color="#65bc8a"/>
      <stop offset=".17" stop-color="#62b988"/>
      <stop offset=".25" stop-color="#59b383"/>
      <stop offset=".32" stop-color="#4aa87a"/>
      <stop offset=".37" stop-color="#3b9c71"/>
      <stop offset=".77" stop-color="#62bc8a"/>
    </linearGradient>
    <radialGradient id="radial-gradient-5" cy="45.05" fy="28.97" r="30.1" xlink:href="#radial-gradient-2"/>
    <linearGradient id="linear-gradient-5" x1="49.33" y1="40.88" x2="3.2" y2="40.88" xlink:href="#linear-gradient-4"/>
    <linearGradient id="linear-gradient-6" x1="18.03" y1="58.56" x2="45.24" y2="58.56" gradientUnits="userSpaceOnUse">
      <stop offset="0" stop-color="#2e9268"/>
      <stop offset=".7" stop-color="#2d8e66"/>
      <stop offset="1" stop-color="#2d8a65"/>
    </linearGradient>
    <linearGradient id="linear-gradient-7" x1="18.03" y1="54.44" x2="45.24" y2="54.44" xlink:href="#linear-gradient-6"/>
    <radialGradient id="radial-gradient-6" cx="36.91" cy="45.05" fx="36.91" fy="28.97" r="30.1" xlink:href="#radial-gradient-2"/>
    <linearGradient id="linear-gradient-8" x1="18.03" y1="57.55" x2="45.24" y2="57.55" xlink:href="#linear-gradient-6"/>
    <radialGradient id="radial-gradient-7" cx="36.91" cy="45.05" fx="36.91" fy="28.97" r="30.1" xlink:href="#radial-gradient-2"/>
    <linearGradient id="linear-gradient-9" x1="18.03" y1="58.83" x2="45.24" y2="58.83" xlink:href="#linear-gradient-6"/>
    <linearGradient id="linear-gradient-10" x1="38.38" y1="23.95" x2="75.51" y2="23.95" gradientUnits="userSpaceOnUse">
      <stop offset="0" stop-color="#e8c97a"/>
      <stop offset=".32" stop-color="#ebc46e"/>
      <stop offset=".89" stop-color="#f5b750"/>
      <stop offset="1" stop-color="#f8b54a"/>
    </linearGradient>
    <linearGradient id="linear-gradient-11" x1="38.38" y1="16.71" x2="75.51" y2="16.71" xlink:href="#linear-gradient-10"/>
    <radialGradient id="radial-gradient-8" cy="45.05" fy="28.97" r="30.1" xlink:href="#radial-gradient-2"/>
    <linearGradient id="linear-gradient-12" x1="38.38" y1="34.19" x2="75.51" y2="34.19" xlink:href="#linear-gradient-10"/>
    <radialGradient id="radial-gradient-9" cy="45.05" fy="28.97" r="30.1" xlink:href="#radial-gradient-2"/>
    <linearGradient id="linear-gradient-13" x1="38.38" y1="28.99" x2="75.51" y2="28.99" xlink:href="#linear-gradient-10"/>
    <linearGradient id="linear-gradient-14" x1="58.33" y1="13.98" x2="83.44" y2="39.08" xlink:href="#linear-gradient"/>
    <linearGradient id="linear-gradient-15" x1="38.38" y1="17.45" x2="75.51" y2="17.45" xlink:href="#linear-gradient-10"/>
    <radialGradient id="radial-gradient-10" cy="45.05" fy="28.97" r="30.1" xlink:href="#radial-gradient-2"/>
    <linearGradient id="linear-gradient-16" x1="43.44" y1="28.87" x2="68.54" y2="53.98" xlink:href="#linear-gradient"/>
    <linearGradient id="linear-gradient-17" x1="38.38" y1="29.11" x2="75.51" y2="29.11" xlink:href="#linear-gradient-10"/>
    <linearGradient id="linear-gradient-18" x1="49.33" y1="23.52" x2="3.2" y2="23.52" xlink:href="#linear-gradient-4"/>
    <linearGradient id="linear-gradient-19" x1="38.38" y1="23.52" x2="75.51" y2="23.52" xlink:href="#linear-gradient-10"/>
    <radialGradient id="radial-gradient-11" cx="48.12" cy="23.85" fx="48.12" fy="23.85" r="0" xlink:href="#radial-gradient-2"/>
    <linearGradient id="linear-gradient-20" x1="49.33" y1="23.85" x2="40.22" y2="23.85" xlink:href="#linear-gradient-4"/>
    <linearGradient id="linear-gradient-21" x1="38.38" y1="23.85" x2="47.49" y2="23.85" xlink:href="#linear-gradient-10"/>
    <linearGradient id="linear-gradient-22" x1="48.7" y1="23.61" x2="73.81" y2="48.71" xlink:href="#linear-gradient"/>
    <linearGradient id="linear-gradient-23" x1="49.33" y1="23.64" x2="3.2" y2="23.64" xlink:href="#linear-gradient-4"/>
    <linearGradient id="linear-gradient-24" x1="38.38" y1="23.64" x2="75.51" y2="23.64" xlink:href="#linear-gradient-10"/>
    <linearGradient id="linear-gradient-25" x1="38.41" y1="35.3" x2="91.92" y2="35.3" gradientUnits="userSpaceOnUse">
      <stop offset="0" stop-color="#e8c97a"/>
      <stop offset=".25" stop-color="#e2bf6e"/>
      <stop offset=".69" stop-color="#d5a650"/>
      <stop offset=".99" stop-color="#ca9338"/>
    </linearGradient>
    <radialGradient id="radial-gradient-12" cx="36.91" cy="45.05" fx="36.91" fy="28.97" r="30.1" xlink:href="#radial-gradient-2"/>
    <linearGradient id="linear-gradient-26" x1="38.41" y1="33.52" x2="91.92" y2="33.52" xlink:href="#linear-gradient-25"/>
    <radialGradient id="radial-gradient-13" cx="36.91" cy="45.05" fx="36.91" fy="28.97" r="30.1" xlink:href="#radial-gradient-2"/>
    <linearGradient id="linear-gradient-27" x1="38.41" y1="41.96" x2="91.92" y2="41.96" xlink:href="#linear-gradient-25"/>
    <radialGradient id="radial-gradient-14" cx="36.91" cy="45.05" fx="36.91" fy="28.97" r="30.1" xlink:href="#radial-gradient-2"/>
    <linearGradient id="linear-gradient-28" x1="38.41" y1="34.14" x2="91.92" y2="34.14" xlink:href="#linear-gradient-25"/>
    <linearGradient id="linear-gradient-29" x1="49.28" y1="23.03" x2="74.38" y2="48.14" xlink:href="#linear-gradient"/>
    <linearGradient id="linear-gradient-30" x1="38.41" y1="32.46" x2="91.92" y2="32.46" xlink:href="#linear-gradient-25"/>
    <linearGradient id="linear-gradient-31" x1="59.19" y1="13.12" x2="84.3" y2="38.22" xlink:href="#linear-gradient"/>
    <linearGradient id="linear-gradient-32" x1="38.41" y1="34.7" x2="91.92" y2="34.7" xlink:href="#linear-gradient-25"/>
    <radialGradient id="radial-gradient-15" cy="45.05" fy="28.97" r="30.1" xlink:href="#radial-gradient-2"/>
    <linearGradient id="linear-gradient-33" x1="43.72" y1="28.59" x2="68.82" y2="53.69" xlink:href="#linear-gradient"/>
    <linearGradient id="linear-gradient-34" x1="38.41" y1="33.08" x2="91.92" y2="33.08" xlink:href="#linear-gradient-25"/>
    <radialGradient id="radial-gradient-16" cy="45.05" fy="28.97" r="30.1" xlink:href="#radial-gradient-2"/>
    <linearGradient id="linear-gradient-35" x1="49.07" y1="23.24" x2="74.18" y2="48.34" xlink:href="#linear-gradient"/>
    <linearGradient id="linear-gradient-36" x1="38.41" y1="41.73" x2="91.92" y2="41.73" xlink:href="#linear-gradient-25"/>
    <radialGradient id="radial-gradient-17" cx="36.91" cy="45.05" fx="36.91" fy="28.97" r="30.1" xlink:href="#radial-gradient-2"/>
    <linearGradient id="linear-gradient-37" x1="38.38" y1="34.17" x2="75.51" y2="34.17" xlink:href="#linear-gradient-10"/>
    <linearGradient id="linear-gradient-38" x1="38.41" y1="34.17" x2="91.92" y2="34.17" xlink:href="#linear-gradient-25"/>
    <radialGradient id="radial-gradient-18" cx="36.91" cy="45.05" fx="36.91" fy="28.97" r="30.1" xlink:href="#radial-gradient-2"/>
    <linearGradient id="linear-gradient-39" x1="38.98" y1="33.33" x2="64.08" y2="58.43" xlink:href="#linear-gradient"/>
    <linearGradient id="linear-gradient-40" x1="38.38" y1="34.17" x2="75.51" y2="34.17" xlink:href="#linear-gradient-10"/>
    <linearGradient id="linear-gradient-41" x1="38.41" y1="34.17" x2="91.92" y2="34.17" xlink:href="#linear-gradient-25"/>
    <linearGradient id="linear-gradient-42" x1="263.8" y1="-20.51" x2="181.15" y2="97.52" gradientUnits="userSpaceOnUse">
      <stop offset=".02" stop-color="#f7b243"/>
      <stop offset=".12" stop-color="#f1b043"/>
      <stop offset=".26" stop-color="#e0ad46"/>
      <stop offset=".41" stop-color="#c5a849"/>
      <stop offset=".58" stop-color="#9ea04f"/>
      <stop offset=".76" stop-color="#6d9655"/>
      <stop offset=".95" stop-color="#328b5d"/>
      <stop offset="1" stop-color="#228860"/>
    </linearGradient>
  </defs>
  <circle class="cls-24" cx="91.24" cy="7.09" r="7.09"/>
  <path class="cls-36" d="M43.68,57.11l19.15-19.65-8.44-7.62-6.16,6.21c-1.77,1.79-4.59,2-6.61.49l-3.11-2.31h-.13l.06-.06-.02-.02s0-.02,0-.02h.05l9.65-10.27h-15.9L0,57.93v8.33h18.09l16.32-17.4,9.28,8.26Z"/>
  <path class="cls-25" d="M63.94,38.46l-12.41,13.19.4-.41,7.17,6.92-.4.42-7.17-6.92-6.37,6.77.09.08-.85.73-.04.04,2.09,1.84h0s3.14,2.87,3.14,2.87l3.37-3.56,1.81,1.65c1.14,1.05,2.92.97,3.96-.18.89-.97.96-2.4.26-3.45l.37.34c1.18,1.08,3.01,1,4.08-.18l.26-.28c.89-.98.99-2.4.32-3.47l.19.17c1.13,1.04,2.9.96,3.93-.18l.16-.17c.78-.86.93-2.07.47-3.06l-.19.2-9.01-8.7.39-.41,9.01,8.7-.19.2c1.21,1.01,3.01.9,4.08-.28l.09-.1c1.27-1.39,1.17-3.57-.22-4.85l-1.02-.94h0l-7.74-7ZM64.25,54.57l-.52.54-8.09-7.81.52-.54,8.09,7.81Z"/>
  <path class="cls-59" d="M75.51,11.22l-10.23,12.18h-14.58l-1.42,1.52,4.13,3.79,1.2-1.2,9.41,8.73,18.69-19.18-4.11-1,7.14-2.23c-1.91-1.6-3.13-4-3.13-6.69,0-.32.02-.63.05-.94h-.01s-10.22,1.69-10.22,1.69l1.94,2.09.02-.02,1.13,1.25Z"/>
  <path class="cls-6" d="M91.32,15.85c-1.91,0-3.68-.62-5.11-1.66l-1.59,7.88-.9-4.61-18.62,19.77,6.61,6.14,19.05-19.01,1.17.98-.04.04,2.9,2.36v-12.53l-.06-.05c-1.04.44-2.19.69-3.39.69Z"/>
  <path class="cls-40" d="M41.53,34.74c2.01,1.39,4.72,1.14,6.45-.59l5.44-5.44-4.13-3.79-8.6,9.24.83.57Z"/>
  <path class="cls-26" d="M41.53,34.74c2.01,1.39,4.72,1.14,6.45-.59l5.44-5.44-4.13-3.79-8.6,9.24.83.57Z"/>
  <polygon class="cls-20" points="48.11 23.84 48.12 23.85 48.73 23.2 47.55 21.9 31.47 21.9 0 55.45 0 57.93 32.07 23.84 48.11 23.84"/>
  <polygon class="cls-21" points="48.12 23.85 48.12 23.85 48.11 23.84 32.07 23.84 0 57.93 32.22 23.85 48.12 23.85"/>
  <polygon class="cls-28" points="48.12 23.85 48.12 23.85 48.11 23.84 32.07 23.84 0 57.93 32.22 23.85 48.12 23.85"/>
  <polygon class="cls-47" points="18.09 66.26 18.03 66.32 20.13 66.32 34.68 50.79 19.85 66.26 18.09 66.26"/>
  <polygon class="cls-42" points="34.68 50.79 42.73 58.09 42.85 57.97 34.68 50.79"/>
  <polygon class="cls-52" points="43.68 57.11 34.4 48.85 18.09 66.26 19.85 66.26 34.68 50.79 42.85 57.97 43.68 57.11"/>
  <polygon class="cls-34" points="43.68 57.11 34.4 48.85 18.09 66.26 19.85 66.26 34.68 50.79 42.85 57.97 43.68 57.11"/>
  <polygon class="cls-55" points="45.24 58.5 45.15 58.42 44.38 59.23 45.24 58.5"/>
  <polygon class="cls-43" points="45.24 58.5 45.15 58.42 44.38 59.23 45.24 58.5"/>
  <polygon class="cls-9" points="48.53 23.85 48.12 23.85 48.34 24.05 48.53 23.85"/>
  <polygon class="cls-44" points="49.98 22.33 64.71 22.33 74.75 10.39 74.37 9.99 64.24 21.9 49.96 21.9 48.73 23.2 48.94 23.42 49.98 22.33"/>
  <polygon class="cls-35" points="38.38 34.22 38.52 34.22 38.44 34.16 38.38 34.22"/>
  <polygon class="cls-10" points="38.38 34.22 38.52 34.22 38.44 34.16 38.38 34.22"/>
  <polygon class="cls-7" points="38.8 34.04 48.34 24.05 48.12 23.85 48.12 23.85 38.48 34.12 38.89 34.12 38.8 34.04"/>
  <polygon class="cls-3" points="38.8 34.04 48.34 24.05 48.12 23.85 48.12 23.85 38.48 34.12 38.89 34.12 38.8 34.04"/>
  <polygon class="cls-37" points="64.71 22.33 49.98 22.33 48.94 23.42 49.33 23.85 48.53 23.85 48.34 24.05 49.29 24.92 50.71 23.4 65.29 23.4 75.51 11.22 74.39 9.97 74.37 9.99 74.75 10.39 64.71 22.33"/>
  <polygon class="cls-2" points="64.71 22.33 49.98 22.33 48.94 23.42 49.33 23.85 48.53 23.85 48.34 24.05 49.29 24.92 50.71 23.4 65.29 23.4 75.51 11.22 74.39 9.97 74.37 9.99 74.75 10.39 64.71 22.33"/>
  <polygon class="cls-1" points="38.89 34.12 40.64 34.12 40.69 34.16 49.29 24.92 48.34 24.05 38.8 34.04 38.89 34.12"/>
  <polygon class="cls-56" points="38.89 34.12 40.64 34.12 40.69 34.16 49.29 24.92 48.34 24.05 38.8 34.04 38.89 34.12"/>
  <polygon class="cls-41" points="38.89 34.12 40.64 34.12 40.69 34.16 49.29 24.92 48.34 24.05 38.8 34.04 38.89 34.12"/>
  <polygon class="cls-62" points="48.12 23.85 48.53 23.85 48.94 23.42 48.73 23.2 48.12 23.85 48.12 23.85"/>
  <polygon class="cls-45" points="48.12 23.85 48.53 23.85 48.94 23.42 48.73 23.2 48.12 23.85 48.12 23.85"/>
  <polygon class="cls-32" points="48.12 23.85 48.12 23.85 48.12 23.85 48.12 23.85"/>
  <polygon class="cls-39" points="48.12 23.85 48.12 23.85 48.12 23.85 48.12 23.85"/>
  <polygon class="cls-50" points="48.12 23.85 48.12 23.85 48.12 23.85 48.12 23.85"/>
  <polygon class="cls-30" points="48.94 23.42 48.53 23.85 49.33 23.85 48.94 23.42"/>
  <polygon class="cls-60" points="48.94 23.42 48.53 23.85 49.33 23.85 48.94 23.42"/>
  <polygon class="cls-31" points="48.94 23.42 48.53 23.85 49.33 23.85 48.94 23.42"/>
  <polygon class="cls-8" points="71.23 45.05 71.23 45.05 71.68 45.46 91.88 25.38 91.57 25.13 71.23 45.05"/>
  <path class="cls-46" d="M54.04,29.51l-5.69,5.48c-2.66,2.56-5.85,2.43-8.57-.06l-.77-.7h-.48l3.11,2.31c2.02,1.5,4.84,1.29,6.61-.49l6.16-6.21,8.44,7.62h0s-8.8-7.95-8.8-7.95Z"/>
  <path class="cls-18" d="M54.04,29.51l-5.69,5.48c-2.66,2.56-5.85,2.43-8.57-.06l-.77-.7h-.48l3.11,2.31c2.02,1.5,4.84,1.29,6.61-.49l6.16-6.21,8.44,7.62h0s-8.8-7.95-8.8-7.95Z"/>
  <polygon class="cls-58" points="63.94 38.46 63.94 38.46 71.68 45.46 71.68 45.46 71.23 45.05 63.94 38.46"/>
  <polygon class="cls-12" points="63.94 38.46 63.94 38.46 71.68 45.46 71.68 45.46 71.23 45.05 63.94 38.46"/>
  <path class="cls-14" d="M38.42,34.12s-.02.02,0,.02l.02.02.04-.04h-.05Z"/>
  <path class="cls-4" d="M38.42,34.12s-.02.02,0,.02l.02.02.04-.04h-.05Z"/>
  <polygon class="cls-38" points="64.02 36.24 54.62 27.51 53.42 28.71 62.89 37.4 64.02 36.24"/>
  <polygon class="cls-23" points="64.02 36.24 54.62 27.51 53.42 28.71 62.89 37.4 64.02 36.24"/>
  <polygon class="cls-61" points="90.75 24.36 71.71 43.37 65.1 37.23 63.99 38.41 66.46 40.69 71.23 45.05 71.23 45.05 91.57 25.13 91.88 25.38 91.92 25.34 90.75 24.36"/>
  <polygon class="cls-53" points="90.75 24.36 71.71 43.37 65.1 37.23 63.99 38.41 66.46 40.69 71.23 45.05 71.23 45.05 91.57 25.13 91.88 25.38 91.92 25.34 90.75 24.36"/>
  <path class="cls-48" d="M41.53,34.74l-.83-.57-.06.06h-1.64l.77.7c2.72,2.49,5.91,2.62,8.57.06l5.69-5.48,8.8,7.95.05-.05-9.47-8.69-5.44,5.44c-1.73,1.73-4.44,1.97-6.45.59Z"/>
  <path class="cls-33" d="M41.53,34.74l-.83-.57-.06.06h-1.64l.77.7c2.72,2.49,5.91,2.62,8.57.06l5.69-5.48,8.8,7.95.05-.05-9.47-8.69-5.44,5.44c-1.73,1.73-4.44,1.97-6.45.59Z"/>
  <path class="cls-27" d="M41.53,34.74l-.83-.57-.06.06h-1.64l.77.7c2.72,2.49,5.91,2.62,8.57.06l5.69-5.48,8.8,7.95.05-.05-9.47-8.69-5.44,5.44c-1.73,1.73-4.44,1.97-6.45.59Z"/>
  <polygon class="cls-16" points="71.23 45.05 66.46 40.69 63.99 38.41 63.94 38.46 71.23 45.05"/>
  <polygon class="cls-22" points="71.23 45.05 66.46 40.69 63.99 38.41 63.94 38.46 71.23 45.05"/>
  <polygon class="cls-49" points="71.23 45.05 66.46 40.69 63.99 38.41 63.94 38.46 71.23 45.05"/>
  <polygon class="cls-57" points="38.89 34.12 38.48 34.12 38.44 34.16 38.52 34.22 39 34.22 38.89 34.12"/>
  <polygon class="cls-13" points="38.89 34.12 38.48 34.12 38.44 34.16 38.52 34.22 39 34.22 38.89 34.12"/>
  <polygon class="cls-29" points="38.89 34.12 38.48 34.12 38.44 34.16 38.52 34.22 39 34.22 38.89 34.12"/>
  <polygon class="cls-17" points="40.69 34.16 40.64 34.12 38.89 34.12 39 34.22 40.64 34.22 40.69 34.16"/>
  <polygon class="cls-15" points="40.69 34.16 40.64 34.12 38.89 34.12 39 34.22 40.64 34.22 40.69 34.16"/>
  <polygon class="cls-11" points="40.69 34.16 40.64 34.12 38.89 34.12 39 34.22 40.64 34.22 40.69 34.16"/>
  <polygon class="cls-54" points="40.69 34.16 40.64 34.12 38.89 34.12 39 34.22 40.64 34.22 40.69 34.16"/>
  <polygon class="cls-19" points="58.69 58.58 59.1 58.16 51.92 51.24 51.53 51.65 51.52 51.65 58.69 58.58"/>
  <rect class="cls-19" x="59.57" y="45.31" width=".75" height="11.24" transform="translate(-18.33 58.69) rotate(-46.01)"/>
  <path class="cls-19" d="M68.75,51.63h0s-.01-.02-.02-.02c0,0,0,.02,0,.02Z"/>
  <path class="cls-19" d="M59.94,42.73l-.39.41,9.01,8.7.19-.2s0-.02,0-.02c0,0,.01,0,.02.01l.19-.2-9.01-8.7Z"/>
  <path class="cls-51" d="M44.19,59.4l-1.45-1.31-5.3,5.44c-.28.29-.27.76.04,1.03.58.51,1.46.47,1.99-.1l4.88-5.18h0s-.15.13-.15.13Z"/>
  <polygon class="cls-51" points="44.34 59.27 44.34 59.28 44.38 59.23 44.34 59.27"/>
  <polygon class="cls-51" points="44.34 59.27 42.85 57.97 42.73 58.09 44.19 59.4 44.34 59.27"/>
  <polygon class="cls-51" points="51.52 51.65 51.53 51.65 51.52 51.65 51.52 51.65"/>
  <path class="cls-5" d="M128.88,57.55h-8.65l-7.21-21.1c-.37-1.09-.6-1.98-.69-2.65h-.13c-.36,1.12-1.07,2.86-2.13,5.2l-8.43,18.55h-8.01l14.82-32.61h9.22l6.86,20.51c.46,1.36.72,2.23.79,2.59h.13c.19-.79.78-2.29,1.79-4.5l8.45-18.59h8.01l-14.82,32.61ZM176.47,43.53c-4.42,9.73-12.13,14.59-23.12,14.59s-13.77-4.74-9.46-14.21l8.62-18.97h8.47l-8.64,19.01c-2.47,5.43-1.1,8.15,4.1,8.15s8.87-2.62,11.25-7.85l8.78-19.31h8.45l-8.45,18.59ZM213.65,30.63h-14.16l-3.81,8.38h13.03l-2.58,5.68h-13.03l-5.85,12.86h-8.45l14.82-32.61h22.6l-2.58,5.69ZM239.32,57.55h-9.22l.43-7.47h-14.41l-6.32,7.47h-9.16l29.34-32.61h9.93l-.59,32.61ZM230.98,44.71l.63-11.31c.04-.72.26-1.66.68-2.84h-.23c-.54.96-1.18,1.87-1.94,2.76l-9.71,11.39h10.57ZM267.58,24.94l-14.82,32.61h-8.45l14.82-32.61h8.45ZM294.26,57.55h-10.7l-5.53-14.25c-.14-.36-.23-.93-.27-1.71h-.13l-7.25,15.96h-8.45l14.82-32.61h8.45l-7,15.41h.13c.68-.67,1.32-1.26,1.92-1.75l17.58-13.67h10.09l-21.25,15.56,7.61,17.05ZM332.66,57.55h-9.22l.43-7.47h-14.41l-6.32,7.47h-9.16l29.34-32.61h9.93l-.59,32.61ZM324.31,44.71l.63-11.31c.03-.72.26-1.66.68-2.84h-.23c-.54.96-1.18,1.87-1.94,2.76l-9.71,11.39h10.57Z"/>
</svg>